<svg class="toyplot-canvas-Canvas" xmlns:toyplot="http://www.sandia.gov/toyplot" xmlns:xlink="http://www.w3.org/1999/xlink" xmlns="http://www.w3.org/2000/svg" width="800.0px" height="600.0px" viewBox="0 0 800.0 600.0" preserveAspectRatio="xMidYMid meet" style="background-color:transparent;border-color:#292724;border-style:none;border-width:1.0;fill:rgb(16.1%,15.3%,14.1%);fill-opacity:1.0;font-family:Helvetica;font-size:12px;opacity:1.0;stroke:rgb(16.1%,15.3%,14.1%);stroke-opacity:1.0;stroke-width:1.0" id="t0e7a3976b8234bf4a1c1fd378f00171c"><g class="toyplot-coordinates-Cartesian" id="t886f4f18489043adab7450533437e9c5"><clipPath id="t056d95d0119245858be182fa9236a93e"><rect x="30.0" y="30.0" width="740.0" height="540.0" /></clipPath><g clip-path="url(#t056d95d0119245858be182fa9236a93e)"><g class="toytree-mark-Toytree" id="t357655e8ced74407bafc9c239edb02a5"><g class="toytree-Edges" style="fill:none;stroke:rgb(14.9%,14.9%,14.9%);stroke-linecap:round;stroke-opacity:1;stroke-width:2"><path d="M 50.0 135.3 L 50.0 247.9 L 198.2 247.9" id="27,26" /><path d="M 198.2 247.9 L 198.2 159.7 L 313.6 159.7" id="26,25" /><path d="M 198.2 247.9 L 198.2 336.1 L 225.8 336.1" id="26,24" /><path d="M 313.6 159.7 L 313.6 189.5 L 364.0 189.5" id="25,23" /><path d="M 225.8 336.1 L 225.8 283.0 L 366.5 283.0" id="24,22" /><path d="M 225.8 336.1 L 225.8 389.3 L 250.1 389.3" id="24,21" /><path d="M 364.0 189.5 L 364.0 215.0 L 480.2 215.0" id="23,20" /><path d="M 250.1 389.3 L 250.1 444.5 L 309.5 444.5" id="21,19" /><path d="M 309.5 444.5 L 309.5 393.5 L 529.4 393.5" id="19,18" /><path d="M 309.5 444.5 L 309.5 495.5 L 349.0 495.5" id="19,17" /><path d="M 529.4 393.5 L 529.4 419.0 L 543.3 419.0" id="18,16" /><path d="M 349.0 495.5 L 349.0 521.0 L 390.9 521.0" id="17,15" /><path d="M 50.0 135.3 L 50.0 62.0 L 109.3 62.0" id="27,14" /><path d="M 50.0 135.3 L 50.0 96.0 L 97.1 96.0" id="27,13" /><path d="M 313.6 159.7 L 313.6 130.0 L 449.8 130.0" id="25,12" /><path d="M 364.0 189.5 L 364.0 164.0 L 540.1 164.0" id="23,11" /><path d="M 480.2 215.0 L 480.2 198.0 L 686.4 198.0" id="20,10" /><path d="M 480.2 215.0 L 480.2 232.0 L 644.5 232.0" id="20,9" /><path d="M 366.5 283.0 L 366.5 266.0 L 470.5 266.0" id="22,8" /><path d="M 366.5 283.0 L 366.5 300.0 L 527.4 300.0" id="22,7" /><path d="M 250.1 389.3 L 250.1 334.0 L 555.3 334.0" id="21,6" /><path d="M 529.4 393.5 L 529.4 368.0 L 595.4 368.0" id="18,5" /><path d="M 543.3 419.0 L 543.3 402.0 L 596.9 402.0" id="16,4" /><path d="M 543.3 419.0 L 543.3 436.0 L 639.3 436.0" id="16,3" /><path d="M 349.0 495.5 L 349.0 470.0 L 547.5 470.0" id="17,2" /><path d="M 390.9 521.0 L 390.9 504.0 L 484.3 504.0" id="15,1" /><path d="M 390.9 521.0 L 390.9 538.0 L 519.7 538.0" id="15,0" /></g><g class="toytree-AlignEdges" style="stroke:rgb(66.3%,66.3%,66.3%);stroke-dasharray:2, 4;stroke-linecap:round;stroke-opacity:1.0;stroke-width:2"><path d="M 686.4 538.0 L 519.7 538.0" /><path d="M 686.4 504.0 L 484.3 504.0" /><path d="M 686.4 470.0 L 547.5 470.0" /><path d="M 686.4 436.0 L 639.3 436.0" /><path d="M 686.4 402.0 L 596.9 402.0" /><path d="M 686.4 368.0 L 595.4 368.0" /><path d="M 686.4 334.0 L 555.3 334.0" /><path d="M 686.4 300.0 L 527.4 300.0" /><path d="M 686.4 266.0 L 470.5 266.0" /><path d="M 686.4 232.0 L 644.5 232.0" /><path d="M 686.4 198.0 L 686.4 198.0" /><path d="M 686.4 164.0 L 540.1 164.0" /><path d="M 686.4 130.0 L 449.8 130.0" /><path d="M 686.4 96.0 L 97.1 96.0" /><path d="M 686.4 62.0 L 109.3 62.0" /></g><g class="toytree-Nodes" style="fill:rgb(40%,76.1%,64.7%);fill-opacity:1.0;stroke:rgb(0%,0%,0%);stroke-opacity:1.0;stroke-width:0.75"><g fill="rgb(100%,75.3%,79.6%)" fill-opacity="1.0" id="node-0" transform="translate(519.673,538.005)"><rect x="0.0" y="0.0" width="0.0" height="0.0" /></g><g fill="rgb(100%,75.3%,79.6%)" fill-opacity="1.0" id="node-1" transform="translate(484.336,504.004)"><rect x="0.0" y="0.0" width="0.0" height="0.0" /></g><g fill="rgb(100%,75.3%,79.6%)" fill-opacity="1.0" id="node-2" transform="translate(547.525,470.003)"><rect x="0.0" y="0.0" width="0.0" height="0.0" /></g><g fill="rgb(100%,75.3%,79.6%)" fill-opacity="1.0" id="node-3" transform="translate(639.333,436.003)"><rect x="0.0" y="0.0" width="0.0" height="0.0" /></g><g fill="rgb(100%,75.3%,79.6%)" fill-opacity="1.0" id="node-4" transform="translate(596.855,402.002)"><rect x="0.0" y="0.0" width="0.0" height="0.0" /></g><g fill="rgb(100%,75.3%,79.6%)" fill-opacity="1.0" id="node-5" transform="translate(595.372,368.001)"><rect x="0.0" y="0.0" width="0.0" height="0.0" /></g><g fill="rgb(100%,75.3%,79.6%)" fill-opacity="1.0" id="node-6" transform="translate(555.272,334.001)"><rect x="0.0" y="0.0" width="0.0" height="0.0" /></g><g fill="rgb(100%,75.3%,79.6%)" fill-opacity="1.0" id="node-7" transform="translate(527.446,300.000)"><rect x="0.0" y="0.0" width="0.0" height="0.0" /></g><g fill="rgb(100%,75.3%,79.6%)" fill-opacity="1.0" id="node-8" transform="translate(470.509,265.999)"><rect x="0.0" y="0.0" width="0.0" height="0.0" /></g><g fill="rgb(100%,75.3%,79.6%)" fill-opacity="1.0" id="node-9" transform="translate(644.489,231.999)"><rect x="0.0" y="0.0" width="0.0" height="0.0" /></g><g fill="rgb(100%,75.3%,79.6%)" fill-opacity="1.0" id="node-10" transform="translate(686.352,197.998)"><rect x="0.0" y="0.0" width="0.0" height="0.0" /></g><g fill="rgb(100%,75.3%,79.6%)" fill-opacity="1.0" id="node-11" transform="translate(540.080,163.997)"><rect x="0.0" y="0.0" width="0.0" height="0.0" /></g><g fill="rgb(100%,75.3%,79.6%)" fill-opacity="1.0" id="node-12" transform="translate(449.829,129.997)"><rect x="0.0" y="0.0" width="0.0" height="0.0" /></g><g fill="rgb(100%,75.3%,79.6%)" fill-opacity="1.0" id="node-13" transform="translate(97.050,95.996)"><rect x="0.0" y="0.0" width="0.0" height="0.0" /></g><g fill="rgb(100%,75.3%,79.6%)" fill-opacity="1.0" id="node-14" transform="translate(109.257,61.995)"><rect x="0.0" y="0.0" width="0.0" height="0.0" /></g><g fill="rgb(56.5%,93.3%,56.5%)" fill-opacity="1.0" id="node-15" transform="translate(390.864,521.004)"><rect x="-27.0" y="-6.6000000000000005" width="54.0" height="13.200000000000001" /></g><g fill="rgb(100%,75.3%,79.6%)" fill-opacity="1.0" id="node-16" transform="translate(543.317,419.002)"><rect x="-27.0" y="-6.6000000000000005" width="54.0" height="13.200000000000001" /></g><g fill="rgb(56.5%,93.3%,56.5%)" fill-opacity="1.0" id="node-17" transform="translate(348.968,495.504)"><rect x="-27.0" y="-6.6000000000000005" width="54.0" height="13.200000000000001" /></g><g fill="rgb(56.5%,93.3%,56.5%)" fill-opacity="1.0" id="node-18" transform="translate(529.382,393.502)"><rect x="-27.0" y="-6.6000000000000005" width="54.0" height="13.200000000000001" /></g><g fill="rgb(56.5%,93.3%,56.5%)" fill-opacity="1.0" id="node-19" transform="translate(309.520,444.503)"><rect x="-27.0" y="-6.6000000000000005" width="54.0" height="13.200000000000001" /></g><g fill="rgb(100%,75.3%,79.6%)" fill-opacity="1.0" id="node-20" transform="translate(480.163,214.998)"><rect x="-27.0" y="-6.6000000000000005" width="54.0" height="13.200000000000001" /></g><g fill="rgb(100%,75.3%,79.6%)" fill-opacity="1.0" id="node-21" transform="translate(250.078,389.252)"><rect x="-27.0" y="-6.6000000000000005" width="54.0" height="13.200000000000001" /></g><g fill="rgb(56.5%,93.3%,56.5%)" fill-opacity="1.0" id="node-22" transform="translate(366.518,283.000)"><rect x="-27.0" y="-6.6000000000000005" width="54.0" height="13.200000000000001" /></g><g fill="rgb(100%,75.3%,79.6%)" fill-opacity="1.0" id="node-23" transform="translate(363.993,189.498)"><rect x="-27.0" y="-6.6000000000000005" width="54.0" height="13.200000000000001" /></g><g fill="rgb(56.5%,93.3%,56.5%)" fill-opacity="1.0" id="node-24" transform="translate(225.813,336.126)"><rect x="-27.0" y="-6.6000000000000005" width="54.0" height="13.200000000000001" /></g><g fill="rgb(56.5%,93.3%,56.5%)" fill-opacity="1.0" id="node-25" transform="translate(313.590,159.747)"><rect x="-27.0" y="-6.6000000000000005" width="54.0" height="13.200000000000001" /></g><g fill="rgb(56.5%,93.3%,56.5%)" fill-opacity="1.0" id="node-26" transform="translate(198.228,247.937)"><rect x="-27.0" y="-6.6000000000000005" width="54.0" height="13.200000000000001" /></g><g fill="rgb(100%,75.3%,79.6%)" fill-opacity="1.0" id="node-27" transform="translate(50.000,135.309)"><rect x="0.0" y="0.0" width="0.0" height="0.0" /></g></g><g class="toytree-NodeLabels" style="fill:rgb(14.9%,14.9%,14.9%);fill-opacity:1.0;font-size:10px;stroke:none"><g transform="translate(381.13,523.56)"><text>0.99</text></g><g transform="translate(533.59,421.56)"><text>0.19</text></g><g transform="translate(339.24,498.06)"><text>0.99</text></g><g transform="translate(522.43,396.06)"><text>1.0</text></g><g transform="translate(297.01,447.06)"><text>0.934</text></g><g transform="translate(470.43,217.55)"><text>0.78</text></g><g transform="translate(240.35,391.81)"><text>0.83</text></g><g transform="translate(359.57,285.55)"><text>1.0</text></g><g transform="translate(354.26,192.05)"><text>0.78</text></g><g transform="translate(213.30,338.68)"><text>0.954</text></g><g transform="translate(306.64,162.30)"><text>1.0</text></g><g transform="translate(191.28,250.49)"><text>1.0</text></g></g><g class="toytree-TipLabels" style="fill:rgb(14.9%,14.9%,14.9%);fill-opacity:1.0;font-family:helvetica;font-size:11px;font-weight:normal;stroke:none;white-space:pre"><g transform="translate(686.35,538.00)rotate(0)"><text x="15.00" y="2.81" style="">METHD</text></g><g transform="translate(686.35,504.00)rotate(0)"><text x="15.00" y="2.81" style="">METAC</text></g><g transform="translate(686.35,470.00)rotate(0)"><text x="15.00" y="2.81" style="">METPS</text></g><g transform="translate(686.35,436.00)rotate(0)"><text x="15.00" y="2.81" style="">NATM8</text></g><g transform="translate(686.35,402.00)rotate(0)"><text x="15.00" y="2.81" style="">NATMM</text></g><g transform="translate(686.35,368.00)rotate(0)"><text x="15.00" y="2.81" style="">HALMT</text></g><g transform="translate(686.35,334.00)rotate(0)"><text x="15.00" y="2.81" style="">META3</text></g><g transform="translate(686.35,300.00)rotate(0)"><text x="15.00" y="2.81" style="">METLA</text></g><g transform="translate(686.35,266.00)rotate(0)"><text x="15.00" y="2.81" style="">METTH</text></g><g transform="translate(686.35,232.00)rotate(0)"><text x="15.00" y="2.81" style="">SULAC</text></g><g transform="translate(686.35,198.00)rotate(0)"><text x="15.00" y="2.81" style="">METS5</text></g><g transform="translate(686.35,164.00)rotate(0)"><text x="15.00" y="2.81" style="">IGNH4</text></g><g transform="translate(686.35,130.00)rotate(0)"><text x="15.00" y="2.81" style="">PYRF1</text></g><g transform="translate(686.35,96.00)rotate(0)"><text x="15.00" y="2.81" style="">PYRFU</text></g><g transform="translate(686.35,62.00)rotate(0)"><text x="15.00" y="2.81" style="">THEKO</text></g></g></g></g></g></svg>